<svg width="24" height="24" viewBox="0 0 24 24" fill="none" xmlns="http://www.w3.org/2000/svg">
<path opacity="0.4" d="M3.67188 2.5V14.47C3.67188 15.45 4.13187 16.38 4.92188 16.97L10.1319 20.87C11.2419 21.7 12.7719 21.7 13.8819 20.87L19.0919 16.97C19.8819 16.38 20.3419 15.45 20.3419 14.47V2.5H3.67188Z" fill="#ffffff"/>
<path d="M22 3.25H2C1.59 3.25 1.25 2.91 1.25 2.5C1.25 2.09 1.59 1.75 2 1.75H22C22.41 1.75 22.75 2.09 22.75 2.5C22.75 2.91 22.41 3.25 22 3.25Z" fill="#ffffff"/>
<path d="M16 8.75H8C7.59 8.75 7.25 8.41 7.25 8C7.25 7.59 7.59 7.25 8 7.25H16C16.41 7.25 16.75 7.59 16.75 8C16.75 8.41 16.41 8.75 16 8.75Z" fill="#ffffff"/>
<path d="M16 13.75H8C7.59 13.75 7.25 13.41 7.25 13C7.25 12.59 7.59 12.25 8 12.25H16C16.41 12.25 16.75 12.59 16.75 13C16.75 13.41 16.41 13.75 16 13.75Z" fill="#ffffff"/>
</svg>
