<svg id="epHhySsNfTk1" xmlns="http://www.w3.org/2000/svg" xmlns:xlink="http://www.w3.org/1999/xlink" viewBox="0 0 600 200" shape-rendering="geometricPrecision" text-rendering="geometricPrecision">
<style><![CDATA[
#epHhySsNfTk2 {animation: epHhySsNfTk2_c_o 3000ms linear 1 normal forwards}@keyframes epHhySsNfTk2_c_o { 0% {opacity: 1} 50% {opacity: 1} 63.333333% {opacity: 0} 100% {opacity: 0}} #epHhySsNfTk3 {animation: epHhySsNfTk3_c_o 3000ms linear 1 normal forwards}@keyframes epHhySsNfTk3_c_o { 0% {opacity: 1} 30% {opacity: 1} 46.666667% {opacity: 0} 100% {opacity: 0}} #epHhySsNfTk4 {animation: epHhySsNfTk4_c_o 3000ms linear 1 normal forwards}@keyframes epHhySsNfTk4_c_o { 0% {opacity: 1} 13.333333% {opacity: 1} 26.666667% {opacity: 0} 100% {opacity: 0}} #epHhySsNfTk5_to {animation: epHhySsNfTk5_to__to 3000ms linear 1 normal forwards}@keyframes epHhySsNfTk5_to__to { 0% {transform: translate(41.185001px,99.749998px)} 66.666667% {transform: translate(41.185001px,99.749998px)} 93.333333% {transform: translate(295.675001px,100.108374px)} 100% {transform: translate(295.675001px,100.108374px)}} #epHhySsNfTk6_to {animation: epHhySsNfTk6_to__to 3000ms linear 1 normal forwards}@keyframes epHhySsNfTk6_to__to { 0% {transform: translate(56.99px,99.749998px)} 10% {transform: translate(56.99px,99.749998px)} 66.666667% {transform: translate(595.72px,100.108374px)} 93.333333% {transform: translate(312.224506px,99.999998px)} 100% {transform: translate(312.224506px,99.999998px)}}
]]></style>
<path id="epHhySsNfTk2" d="M563.44,15.18c-.42,0-.84,0-1.26,0h-100.25v77.9h84.4v11.33c-2.81,0-5.61,0-8.42,0h-76v80.39h100.26c.43,0,.85,0,1.27,0v11.66h-115.69c0-.31,0-.62,0-.93v-191.87h114.85.84Z"/><path id="epHhySsNfTk3" d="M329.34,196.53c-.236975-.061067-.477409-.107818-.72-.14-2.7-.23-5.4-.39-8.09-.7-8.691731-.965433-17.183873-3.258783-25.18-6.8-9.000078-3.949675-17.193964-9.526399-24.17-16.45-6.306718-6.311696-11.560123-13.594212-15.56-21.57-4.58037-9.024346-7.792218-18.680109-9.53-28.65-1.534259-8.91323-2.134175-17.962237-1.79-27c.263704-10.11512,1.946811-20.143071,5-29.79c3.579086-11.396463,9.354331-21.982148,17-31.16c8.650418-10.197423,19.615865-18.176345,31.98-23.27c6.675304-2.815005,13.660678-4.829048,20.81-6c7.521046-1.190137,15.142921-1.618972,22.75-1.28c8.48616.266297,16.896631,1.685985,25,4.22c8.872845,2.839201,17.166649,7.241792,24.49,13c2.09,1.62,4.1,3.35,6.15,5c.19.16.36.34.58.55-.086317.172459-.183167.339441-.29.5-1.24,1.81-2.53,3.6-3.73,5.44-1.109203,1.583535-3.211128,2.115398-4.94,1.25-.68-.39-1.33-.84-2-1.29-3-2.06-5.87-4.18-8.87-6.19-5.675321-3.690275-11.933418-6.395017-18.51-8-4.054616-1.088243-8.186738-1.863852-12.36-2.32-4.770503-.482062-9.568933-.629089-14.36-.44-4.677598.143543-9.334452.685505-13.92,1.62-22.71,4.83-39.77,17.25-50.67,37.86-4.096406,7.848168-6.959957,16.280295-8.49,25-1.476436,8.468339-2.013023,17.073846-1.6,25.66.247892,7.916577,1.422568,15.776839,3.5,23.42c2.781276,10.575316,7.687696,20.47322,14.42,29.09c9.265162,11.712013,22.079996,20.10201,36.52,23.91c5.328602,1.457389,10.801691,2.32262,16.32,2.58c5.335162.256498,10.681774.136199,16-.36c6.653288-.54809,13.20589-1.966867,19.49-4.22c7.130267-2.6106,13.76983-6.403669,19.64-11.22c1.88-1.52,3.68-3.15,5.53-4.72.446991-.387314.921578-.741583,1.42-1.06c1.20553-.79536,2.806667-.618856,3.81.42c1.82,1.88,3.58,3.82,5.43,5.79-.87.89-1.7,1.76-2.56,2.6-8.968166,8.961275-19.910312,15.697801-31.95,19.67-5.825595,1.950095-11.837772,3.290603-17.94,4-3.41.38-6.85.58-10.27.87-.242591.032182-.483025.078933-.72.14Z"/><path id="epHhySsNfTk4" d="M149,196.53c-1.2-.11-2.39-.25-3.6-.33-7.832128-.442792-15.530339-2.225286-22.76-5.27-8.186944-3.616127-15.643072-8.699851-22-15-1.35-1.32-2.63-2.7-4-4.07.12-.24.2-.42.3-.58q1.61-2.53,3.22-5.06c.65778-1.067885,1.692874-1.849559,2.9-2.19.816025-.259122,1.703885-.157237,2.44.28.6289.379688,1.227366.807642,1.79,1.28c2.77,2.31,5.48,4.69,8.28,7c7.412468,5.916443,16.184081,9.889791,25.52,11.56c4.245592.760975,8.558689,1.079346,12.87.95c5.928308-.011396,11.815251-.987487,17.43-2.89c6.0846-2.04515,11.648029-5.39686,16.3-9.82c4.848008-4.719209,8.41056-10.598281,10.35-17.08c1.686279-5.448207,2.36405-11.158431,2-16.85-.109255-4.214462-1.147274-8.352877-3.04-12.12-2.261432-4.147267-5.393007-7.756424-9.18-10.58-3.923696-2.898829-8.197441-5.291051-12.72-7.12-4.18-1.77-8.51-3.11-12.81-4.55-6.49-2.16-13-4.22-19.47-6.46-4.438335-1.463172-8.75771-3.26514-12.92-5.39-4.802092-2.427903-9.189694-5.600478-13-9.4-5.813145-5.74288-9.633224-13.197293-10.9-21.27-.665167-4.03381-.86314-8.13085-.59-12.21C106.71,33.15,114.13,20.59,128,12c6.568409-4.047876,13.919752-6.658506,21.57-7.66c5.340163-.69935,10.736295-.870177,16.11-.51c5.805445.322104,11.545607,1.387462,17.08,3.17c8.916013,2.95164,17.041861,7.896916,23.76,14.46.36.34.75.67,1,.93.012471.109647.012471.220353,0,.33-1.06,2.05-2.09,4.12-3.21,6.14-.433687.973768-1.277689,1.704446-2.303523,1.994229s-2.127395.1087-3.006477-.494229c-.938176-.56731-1.821932-1.220084-2.64-1.95-6.340427-5.466066-13.797193-9.482822-21.85-11.77-3.012492-.845486-6.113588-1.335486-9.24-1.46-2.59-.12-5.19-.22-7.77-.15-6.701402.075504-13.306649,1.603991-19.36,4.48-10.69,5.24-17.23,13.71-19.52,25.38-.952757,4.965315-.853966,10.075221.29,15c1.121932,4.556435,3.430124,8.734642,6.69,12.11c2.897296,3.089104,6.24516,5.722218,9.93,7.81c4.573705,2.616806,9.40193,4.761194,14.41,6.4c6.8,2.31,13.6,4.58,20.38,6.93c5.50573,1.831076,10.901345,3.97797,16.16,6.43c5.255321,2.425442,10.084217,5.684102,14.3,9.65c5.253891,4.886527,8.986472,11.185039,10.75,18.14.956692,4.119249,1.393428,8.342147,1.3,12.57.018273,9.047117-2.034116,17.978431-6,26.11-4.959677,10.139304-13.110115,18.370543-23.2,23.43-6.285382,3.264618-13.1017,5.384348-20.13,6.26-2.37.3-4.77.46-7.15.7-.245892.032166-.489654.078915-.73.14Z"/><g id="epHhySsNfTk5_to" transform="translate(41.185001,99.749998)"><path d="M36.86,3.69h8.65v192.12h-8.65Z" transform="translate(-41.185001,-99.749998)"/></g><g id="epHhySsNfTk6_to" transform="translate(56.99,99.749998)"><path d="M52.71,3.69h8.56v192.12h-8.56Z" transform="translate(-56.99,-99.749998)"/></g></svg>
